<?xml version="1.0" encoding="UTF-8" standalone="no"?>
<!DOCTYPE svg PUBLIC "-//W3C//DTD SVG 1.1//EN"
 "http://www.w3.org/Graphics/SVG/1.1/DTD/svg11.dtd">
<!-- Generated by graphviz version 2.40.1 (20161225.0304)
 -->
<!-- Title: %3 Pages: 1 -->
<svg width="1845pt" height="1074pt"
 viewBox="0.00 0.00 1845.31 1074.00" xmlns="http://www.w3.org/2000/svg" xmlns:xlink="http://www.w3.org/1999/xlink">
<g id="graph0" class="graph" transform="scale(1 1) rotate(0) translate(4 1070)">
<title>%3</title>
<polygon fill="#ffffff" stroke="transparent" points="-4,4 -4,-1070 1841.3061,-1070 1841.3061,4 -4,4"/>
<g id="clust1" class="cluster">
<title>cluster&#45;nid&#45;02</title>
<polygon fill="none" stroke="#cccccc" points="37.9692,-103 37.9692,-169 497.3789,-169 497.3789,-103 37.9692,-103"/>
</g>
<g id="clust2" class="cluster">
<title>cluster&#45;nid&#45;03</title>
<polygon fill="none" stroke="#cccccc" points="37.9692,-22 37.9692,-88 497.3789,-88 497.3789,-22 37.9692,-22"/>
</g>
<g id="clust5" class="cluster">
<title>cluster&#45;nid&#45;06</title>
<polygon fill="none" stroke="#cccccc" points="8,-275 8,-341 157.146,-341 157.146,-275 8,-275"/>
</g>
<g id="clust6" class="cluster">
<title>cluster&#45;nid&#45;07</title>
<polygon fill="none" stroke="#cccccc" points="1165.6244,-981 1165.6244,-1047 1540.0985,-1047 1540.0985,-981 1165.6244,-981"/>
</g>
<g id="clust7" class="cluster">
<title>cluster&#45;nid&#45;08</title>
<polygon fill="none" stroke="#cccccc" points="1460.4946,-740 1460.4946,-806 1829.3061,-806 1829.3061,-740 1460.4946,-740"/>
</g>
<g id="clust8" class="cluster">
<title>cluster&#45;nid&#45;09</title>
<polygon fill="none" stroke="#cccccc" points="1460.4946,-393 1460.4946,-459 1829.3061,-459 1829.3061,-393 1460.4946,-393"/>
</g>
<g id="clust18" class="cluster">
<title>cluster&#45;nid&#45;12&#45;out</title>
<polygon fill="none" stroke="#cccccc" points="382.6133,-888 382.6133,-968 542.1445,-968 542.1445,-888 382.6133,-888"/>
</g>
<g id="clust20" class="cluster">
<title>cluster&#45;nid&#45;13&#45;out</title>
<polygon fill="none" stroke="#cccccc" points="370.7563,-976 370.7563,-1056 554.0015,-1056 554.0015,-976 370.7563,-976"/>
</g>
<g id="clust21" class="cluster">
<title>cluster&#45;nid&#45;14&#45;in</title>
<polygon fill="none" stroke="#cccccc" points="768.7363,-184 768.7363,-264 949.2334,-264 949.2334,-184 768.7363,-184"/>
</g>
<g id="clust27" class="cluster">
<title>cluster&#45;nid&#45;18&#45;out</title>
<polygon fill="none" stroke="#cccccc" points="372.1304,-604 372.1304,-684 552.6274,-684 552.6274,-604 372.1304,-604"/>
</g>
<g id="clust29" class="cluster">
<title>cluster&#45;nid&#45;19&#45;out</title>
<polygon fill="none" stroke="#cccccc" points="372.1304,-493 372.1304,-573 552.6274,-573 552.6274,-493 372.1304,-493"/>
</g>
<g id="clust31" class="cluster">
<title>cluster&#45;nid&#45;1a&#45;out</title>
<polygon fill="none" stroke="#cccccc" points="372.1304,-359 372.1304,-439 552.6274,-439 552.6274,-359 372.1304,-359"/>
</g>
<g id="clust32" class="cluster">
<title>cluster&#45;nid&#45;1b&#45;in</title>
<polygon fill="none" stroke="#cccccc" points="767.9502,-8 767.9502,-88 1235.6244,-88 1235.6244,-8 767.9502,-8"/>
</g>
<g id="clust33" class="cluster">
<title>cluster&#45;nid&#45;1b&#45;out</title>
<polygon fill="none" stroke="#cccccc" points="47.573,-797 47.573,-877 553.4136,-877 553.4136,-797 47.573,-797"/>
</g>
<g id="clust36" class="cluster">
<title>cluster&#45;nid&#45;1d&#45;out</title>
<polygon fill="none" stroke="#cccccc" points="357.146,-703 357.146,-783 567.6118,-783 567.6118,-703 357.146,-703"/>
</g>
<g id="clust37" class="cluster">
<title>cluster&#45;nid&#45;1e&#45;in</title>
<polygon fill="none" stroke="#cccccc" points="372.1304,-268 372.1304,-348 552.6274,-348 552.6274,-268 372.1304,-268"/>
</g>
<g id="clust41" class="cluster">
<title>cluster&#45;nid&#45;21&#45;in</title>
<polygon fill="none" stroke="#cccccc" points="767.6118,-96 767.6118,-176 950.3579,-176 950.3579,-96 767.6118,-96"/>
</g>
<g id="clust43" class="cluster">
<title>cluster&#45;nid&#45;22</title>
<polygon fill="none" stroke="#cccccc" points="770.3524,-272 770.3524,-580 1250.8908,-580 1250.8908,-272 770.3524,-272"/>
</g>
<g id="clust44" class="cluster">
<title>cluster&#45;nid&#45;23</title>
<polygon fill="none" stroke="#cccccc" points="770.3524,-588 770.3524,-958 1250.8908,-958 1250.8908,-588 770.3524,-588"/>
</g>
<g id="clust45" class="cluster">
<title>cluster&#45;nid&#45;24</title>
<polygon fill="none" stroke="#cccccc" points="797.3167,-970 797.3167,-1058 920.653,-1058 920.653,-970 797.3167,-970"/>
</g>
<!-- nid&#45;02 -->
<g id="node1" class="node">
<title>nid&#45;02</title>
<ellipse fill="none" stroke="#0000ff" cx="82.573" cy="-136" rx="36.7079" ry="25.4118"/>
<text text-anchor="middle" x="82.573" y="-138.8" font-family="Times,serif" font-size="14.00" fill="#000000">0x02</text>
<text text-anchor="middle" x="82.573" y="-124.8" font-family="Times,serif" font-size="14.00" fill="#000000">Stereo</text>
</g>
<!-- nid&#45;02&#45;ampout -->
<g id="node2" class="node">
<title>nid&#45;02&#45;ampout</title>
<polygon fill="none" stroke="#0000ff" points="489.3789,-136 448.8789,-154 448.8789,-118 489.3789,-136"/>
</g>
<!-- nid&#45;02&#45;&gt;nid&#45;02&#45;ampout -->
<g id="edge1" class="edge">
<title>nid&#45;02&#45;&gt;nid&#45;02&#45;ampout</title>
<path fill="none" stroke="#0000ff" d="M119.3355,-136C198.8485,-136 384.4215,-136 443.7725,-136"/>
<polygon fill="#0000ff" stroke="#0000ff" points="443.795,-137.7501 448.795,-136 443.7949,-134.2501 443.795,-137.7501"/>
</g>
<!-- nid&#45;14&#45;in -->
<g id="node17" class="node">
<title>nid&#45;14&#45;in</title>
<polygon fill="none" stroke="#00ff00" points="941.4827,-256 776.487,-256 776.487,-192 941.4827,-192 941.4827,-256"/>
<text text-anchor="middle" x="858.9849" y="-240.8" font-family="Times,serif" font-size="14.00" fill="#000000">0x14</text>
<text text-anchor="middle" x="858.9849" y="-226.8" font-family="Times,serif" font-size="14.00" fill="#000000">[N/A] Speaker at Ext Rear</text>
<text text-anchor="middle" x="858.9849" y="-212.8" font-family="Times,serif" font-size="14.00" fill="#000000">Stereo</text>
<text text-anchor="middle" x="858.9849" y="-198.8" font-family="Times,serif" font-size="14.00" fill="#000000">OUT EAPD Detect</text>
</g>
<!-- nid&#45;02&#45;ampout&#45;&gt;nid&#45;14&#45;in -->
<g id="edge9" class="edge">
<title>nid&#45;02&#45;ampout&#45;&gt;nid&#45;14&#45;in</title>
<path fill="none" stroke="#333333" d="M480.4508,-140.0098C530.1397,-151.0349 671.4369,-182.3864 766.6271,-203.5074"/>
<polygon fill="#333333" stroke="#333333" points="766.0331,-206.9607 776.5539,-205.71 767.5495,-200.1269 766.0331,-206.9607"/>
</g>
<!-- nid&#45;1b&#45;in -->
<g id="node21" class="node">
<title>nid&#45;1b&#45;in</title>
<polygon fill="none" stroke="#00ff00" points="942.0542,-80 775.9155,-80 775.9155,-16 942.0542,-16 942.0542,-80"/>
<text text-anchor="middle" x="858.9849" y="-64.8" font-family="Times,serif" font-size="14.00" fill="#000000">0x1b</text>
<text text-anchor="middle" x="858.9849" y="-50.8" font-family="Times,serif" font-size="14.00" fill="#000000">[Fixed] Speaker at Int N/A</text>
<text text-anchor="middle" x="858.9849" y="-36.8" font-family="Times,serif" font-size="14.00" fill="#000000">Stereo</text>
<text text-anchor="middle" x="858.9849" y="-22.8" font-family="Times,serif" font-size="14.00" fill="#000000">IN OUT EAPD Detect</text>
</g>
<!-- nid&#45;02&#45;ampout&#45;&gt;nid&#45;1b&#45;in -->
<g id="edge12" class="edge">
<title>nid&#45;02&#45;ampout&#45;&gt;nid&#45;1b&#45;in</title>
<path fill="none" stroke="#c0c0c0" stroke-dasharray="5,2" d="M480.4508,-131.9902C529.9933,-120.9975 670.6053,-89.7982 765.7847,-68.6795"/>
<polygon fill="#c0c0c0" stroke="#c0c0c0" points="766.7086,-72.0597 775.713,-66.4766 765.1922,-65.2259 766.7086,-72.0597"/>
</g>
<!-- nid&#45;21&#45;in -->
<g id="node27" class="node">
<title>nid&#45;21&#45;in</title>
<polygon fill="none" stroke="#00ff00" points="942.2312,-168 775.7386,-168 775.7386,-104 942.2312,-104 942.2312,-168"/>
<text text-anchor="middle" x="858.9849" y="-152.8" font-family="Times,serif" font-size="14.00" fill="#000000">0x21</text>
<text text-anchor="middle" x="858.9849" y="-138.8" font-family="Times,serif" font-size="14.00" fill="#000000">[Jack] HP Out at Ext Right</text>
<text text-anchor="middle" x="858.9849" y="-124.8" font-family="Times,serif" font-size="14.00" fill="#000000">Stereo</text>
<text text-anchor="middle" x="858.9849" y="-110.8" font-family="Times,serif" font-size="14.00" fill="#000000">OUT HP EAPD Detect</text>
</g>
<!-- nid&#45;02&#45;ampout&#45;&gt;nid&#45;21&#45;in -->
<g id="edge15" class="edge">
<title>nid&#45;02&#45;ampout&#45;&gt;nid&#45;21&#45;in</title>
<path fill="none" stroke="#333333" d="M489.6392,-136C545.586,-136 675.6563,-136 765.4779,-136"/>
<polygon fill="#333333" stroke="#333333" points="765.6771,-139.5001 775.6771,-136 765.6771,-132.5001 765.6771,-139.5001"/>
</g>
<!-- nid&#45;03 -->
<g id="node3" class="node">
<title>nid&#45;03</title>
<ellipse fill="none" stroke="#0000ff" cx="82.573" cy="-55" rx="36.7079" ry="25.4118"/>
<text text-anchor="middle" x="82.573" y="-57.8" font-family="Times,serif" font-size="14.00" fill="#000000">0x03</text>
<text text-anchor="middle" x="82.573" y="-43.8" font-family="Times,serif" font-size="14.00" fill="#000000">Stereo</text>
</g>
<!-- nid&#45;03&#45;ampout -->
<g id="node4" class="node">
<title>nid&#45;03&#45;ampout</title>
<polygon fill="none" stroke="#0000ff" points="489.3789,-55 448.8789,-73 448.8789,-37 489.3789,-55"/>
</g>
<!-- nid&#45;03&#45;&gt;nid&#45;03&#45;ampout -->
<g id="edge2" class="edge">
<title>nid&#45;03&#45;&gt;nid&#45;03&#45;ampout</title>
<path fill="none" stroke="#0000ff" d="M119.3355,-55C198.8485,-55 384.4215,-55 443.7725,-55"/>
<polygon fill="#0000ff" stroke="#0000ff" points="443.795,-56.7501 448.795,-55 443.7949,-53.2501 443.795,-56.7501"/>
</g>
<!-- nid&#45;03&#45;ampout&#45;&gt;nid&#45;1b&#45;in -->
<g id="edge13" class="edge">
<title>nid&#45;03&#45;ampout&#45;&gt;nid&#45;1b&#45;in</title>
<path fill="none" stroke="#333333" d="M488.4013,-54.5407C543.7145,-53.5644 675.3132,-51.2418 765.8145,-49.6444"/>
<polygon fill="#333333" stroke="#333333" points="765.8764,-53.144 775.8131,-49.468 765.7528,-46.1451 765.8764,-53.144"/>
</g>
<!-- nid&#45;03&#45;ampout&#45;&gt;nid&#45;21&#45;in -->
<g id="edge16" class="edge">
<title>nid&#45;03&#45;ampout&#45;&gt;nid&#45;21&#45;in</title>
<path fill="none" stroke="#c0c0c0" stroke-dasharray="5,2" d="M480.9761,-58.7982C530.97,-69.0086 670.8821,-97.5832 765.7263,-116.9535"/>
<polygon fill="#c0c0c0" stroke="#c0c0c0" points="765.1223,-120.4023 775.6204,-118.9742 766.5231,-113.5439 765.1223,-120.4023"/>
</g>
<!-- nid&#45;06 -->
<g id="node5" class="node">
<title>nid&#45;06</title>
<ellipse fill="none" stroke="#0000ff" cx="82.573" cy="-308" rx="66.6461" ry="25.4118"/>
<text text-anchor="middle" x="82.573" y="-310.8" font-family="Times,serif" font-size="14.00" fill="#000000">0x06</text>
<text text-anchor="middle" x="82.573" y="-296.8" font-family="Times,serif" font-size="14.00" fill="#000000">Stereo Digital</text>
</g>
<!-- nid&#45;1e&#45;in -->
<g id="node26" class="node">
<title>nid&#45;1e&#45;in</title>
<polygon fill="none" stroke="#00ff00" points="544.8767,-340 379.8811,-340 379.8811,-276 544.8767,-276 544.8767,-340"/>
<text text-anchor="middle" x="462.3789" y="-324.8" font-family="Times,serif" font-size="14.00" fill="#000000">0x1e</text>
<text text-anchor="middle" x="462.3789" y="-310.8" font-family="Times,serif" font-size="14.00" fill="#000000">[N/A] Speaker at Ext Rear</text>
<text text-anchor="middle" x="462.3789" y="-296.8" font-family="Times,serif" font-size="14.00" fill="#000000">Stereo Digital</text>
<text text-anchor="middle" x="462.3789" y="-282.8" font-family="Times,serif" font-size="14.00" fill="#000000">OUT Detect</text>
</g>
<!-- nid&#45;06&#45;&gt;nid&#45;1e&#45;in -->
<g id="edge14" class="edge">
<title>nid&#45;06&#45;&gt;nid&#45;1e&#45;in</title>
<path fill="none" stroke="#333333" d="M149.1648,-308C210.2773,-308 301.4064,-308 369.6347,-308"/>
<polygon fill="#333333" stroke="#333333" points="369.9539,-311.5001 379.9539,-308 369.9538,-304.5001 369.9539,-311.5001"/>
</g>
<!-- nid&#45;07 -->
<g id="node6" class="node">
<title>nid&#45;07</title>
<ellipse fill="none" stroke="#ff0000" cx="1495.4946" cy="-1014" rx="36.7079" ry="25.4118"/>
<text text-anchor="middle" x="1495.4946" y="-1016.8" font-family="Times,serif" font-size="14.00" fill="#000000">0x07</text>
<text text-anchor="middle" x="1495.4946" y="-1002.8" font-family="Times,serif" font-size="14.00" fill="#000000">Stereo</text>
</g>
<!-- nid&#45;07&#45;ampin -->
<g id="node7" class="node">
<title>nid&#45;07&#45;ampin</title>
<polygon fill="none" stroke="#3232f1" points="1227.6244,-1014 1187.1244,-1032 1187.1244,-996 1227.6244,-1014"/>
</g>
<!-- nid&#45;07&#45;ampin&#45;&gt;nid&#45;07 -->
<g id="edge3" class="edge">
<title>nid&#45;07&#45;ampin&#45;&gt;nid&#45;07</title>
<path fill="none" stroke="#3232f1" d="M1227.8365,-1014C1279.5623,-1014 1392.3759,-1014 1453.7323,-1014"/>
<polygon fill="#3232f1" stroke="#3232f1" points="1453.7825,-1015.7501 1458.7825,-1014 1453.7824,-1012.2501 1453.7825,-1015.7501"/>
</g>
<!-- nid&#45;24 -->
<g id="node8" class="node">
<title>nid&#45;24</title>
<polygon fill="none" stroke="#000000" points="912.8217,-1050 827.1793,-1050 805.148,-978 890.7904,-978 912.8217,-1050"/>
<text text-anchor="middle" x="858.9849" y="-1016.8" font-family="Times,serif" font-size="14.00" fill="#000000">0x24</text>
<text text-anchor="middle" x="858.9849" y="-1002.8" font-family="Times,serif" font-size="14.00" fill="#000000">Stereo</text>
</g>
<!-- nid&#45;24&#45;&gt;nid&#45;07&#45;ampin -->
<g id="edge4" class="edge">
<title>nid&#45;24&#45;&gt;nid&#45;07&#45;ampin</title>
<path fill="none" stroke="#333333" d="M901.9078,-1014C974.6573,-1014 1119.8234,-1014 1176.8448,-1014"/>
<polygon fill="#333333" stroke="#333333" points="1177.0263,-1017.5001 1187.0262,-1014 1177.0262,-1010.5001 1177.0263,-1017.5001"/>
</g>
<!-- nid&#45;08 -->
<g id="node9" class="node">
<title>nid&#45;08</title>
<ellipse fill="none" stroke="#ff0000" cx="1784.7023" cy="-773" rx="36.7079" ry="25.4118"/>
<text text-anchor="middle" x="1784.7023" y="-775.8" font-family="Times,serif" font-size="14.00" fill="#000000">0x08</text>
<text text-anchor="middle" x="1784.7023" y="-761.8" font-family="Times,serif" font-size="14.00" fill="#000000">Stereo</text>
</g>
<!-- nid&#45;08&#45;ampin -->
<g id="node10" class="node">
<title>nid&#45;08&#45;ampin</title>
<polygon fill="none" stroke="#c8c8c8" points="1522.4946,-773 1481.9946,-791 1481.9946,-755 1522.4946,-773"/>
</g>
<!-- nid&#45;08&#45;ampin&#45;&gt;nid&#45;08 -->
<g id="edge5" class="edge">
<title>nid&#45;08&#45;ampin&#45;&gt;nid&#45;08</title>
<path fill="none" stroke="#c8c8c8" d="M1522.7026,-773C1573.342,-773 1682.3667,-773 1742.589,-773"/>
<polygon fill="#c8c8c8" stroke="#c8c8c8" points="1742.9054,-774.7501 1747.9054,-773 1742.9053,-771.2501 1742.9054,-774.7501"/>
</g>
<!-- nid&#45;23 -->
<g id="node11" class="node">
<title>nid&#45;23</title>
<polygon fill="none" stroke="#000000" points="1242.6586,-773 1221.6415,-802.2881 1179.6073,-802.2881 1158.5902,-773 1179.6073,-743.7119 1221.6415,-743.7119 1242.6586,-773"/>
<text text-anchor="middle" x="1200.6244" y="-775.8" font-family="Times,serif" font-size="14.00" fill="#000000">0x23</text>
<text text-anchor="middle" x="1200.6244" y="-761.8" font-family="Times,serif" font-size="14.00" fill="#000000">Stereo</text>
</g>
<!-- nid&#45;23&#45;&gt;nid&#45;08&#45;ampin -->
<g id="edge6" class="edge">
<title>nid&#45;23&#45;&gt;nid&#45;08&#45;ampin</title>
<path fill="none" stroke="#333333" d="M1242.8721,-773C1305.7932,-773 1422.0474,-773 1471.8468,-773"/>
<polygon fill="#333333" stroke="#333333" points="1471.9537,-776.5001 1481.9537,-773 1471.9537,-769.5001 1471.9537,-776.5001"/>
</g>
<!-- nid&#45;09 -->
<g id="node12" class="node">
<title>nid&#45;09</title>
<ellipse fill="none" stroke="#ff0000" cx="1784.7023" cy="-426" rx="36.7079" ry="25.4118"/>
<text text-anchor="middle" x="1784.7023" y="-428.8" font-family="Times,serif" font-size="14.00" fill="#000000">0x09</text>
<text text-anchor="middle" x="1784.7023" y="-414.8" font-family="Times,serif" font-size="14.00" fill="#000000">Stereo</text>
</g>
<!-- nid&#45;09&#45;ampin -->
<g id="node13" class="node">
<title>nid&#45;09&#45;ampin</title>
<polygon fill="none" stroke="#c8c8c8" points="1522.4946,-426 1481.9946,-444 1481.9946,-408 1522.4946,-426"/>
</g>
<!-- nid&#45;09&#45;ampin&#45;&gt;nid&#45;09 -->
<g id="edge7" class="edge">
<title>nid&#45;09&#45;ampin&#45;&gt;nid&#45;09</title>
<path fill="none" stroke="#c8c8c8" d="M1522.7026,-426C1573.342,-426 1682.3667,-426 1742.589,-426"/>
<polygon fill="#c8c8c8" stroke="#c8c8c8" points="1742.9054,-427.7501 1747.9054,-426 1742.9053,-424.2501 1742.9054,-427.7501"/>
</g>
<!-- nid&#45;22 -->
<g id="node14" class="node">
<title>nid&#45;22</title>
<polygon fill="none" stroke="#000000" points="1242.6586,-426 1221.6415,-455.2881 1179.6073,-455.2881 1158.5902,-426 1179.6073,-396.7119 1221.6415,-396.7119 1242.6586,-426"/>
<text text-anchor="middle" x="1200.6244" y="-428.8" font-family="Times,serif" font-size="14.00" fill="#000000">0x22</text>
<text text-anchor="middle" x="1200.6244" y="-414.8" font-family="Times,serif" font-size="14.00" fill="#000000">Stereo</text>
</g>
<!-- nid&#45;22&#45;&gt;nid&#45;09&#45;ampin -->
<g id="edge8" class="edge">
<title>nid&#45;22&#45;&gt;nid&#45;09&#45;ampin</title>
<path fill="none" stroke="#333333" d="M1242.8721,-426C1305.7932,-426 1422.0474,-426 1471.8468,-426"/>
<polygon fill="#333333" stroke="#333333" points="1471.9537,-429.5001 1481.9537,-426 1471.9537,-422.5001 1471.9537,-429.5001"/>
</g>
<!-- nid&#45;12&#45;out -->
<g id="node15" class="node">
<title>nid&#45;12&#45;out</title>
<polygon fill="none" stroke="#00ff00" points="533.9109,-960 390.8469,-960 390.8469,-896 533.9109,-896 533.9109,-960"/>
<text text-anchor="middle" x="462.3789" y="-944.8" font-family="Times,serif" font-size="14.00" fill="#000000">0x12</text>
<text text-anchor="middle" x="462.3789" y="-930.8" font-family="Times,serif" font-size="14.00" fill="#000000">[Fixed] Mic at Int N/A</text>
<text text-anchor="middle" x="462.3789" y="-916.8" font-family="Times,serif" font-size="14.00" fill="#000000">Stereo</text>
<text text-anchor="middle" x="462.3789" y="-902.8" font-family="Times,serif" font-size="14.00" fill="#000000">IN</text>
</g>
<!-- nid&#45;12&#45;out&#45;&gt;nid&#45;24 -->
<g id="edge39" class="edge">
<title>nid&#45;12&#45;out&#45;&gt;nid&#45;24</title>
<path fill="none" stroke="#333333" d="M534.2013,-943.574C611.4334,-960.321 732.5951,-986.5937 803.0482,-1001.8707"/>
<polygon fill="#333333" stroke="#333333" points="802.5492,-1005.3438 813.0638,-1004.0425 804.0326,-998.5027 802.5492,-1005.3438"/>
</g>
<!-- nid&#45;23&#45;ampin&#45;18 -->
<g id="node38" class="node">
<title>nid&#45;23&#45;ampin&#45;18</title>
<polygon fill="none" stroke="#c8c8c8" points="939.75,-928 818.6023,-950 818.6023,-906 939.75,-928"/>
<text text-anchor="middle" x="858.9849" y="-923.8" font-family="Times,serif" font-size="14.00" fill="#000000">5 (0x12)</text>
</g>
<!-- nid&#45;12&#45;out&#45;&gt;nid&#45;23&#45;ampin&#45;18 -->
<g id="edge38" class="edge">
<title>nid&#45;12&#45;out&#45;&gt;nid&#45;23&#45;ampin&#45;18</title>
<path fill="none" stroke="#333333" d="M534.2013,-928C613.3984,-928 738.7889,-928 808.3257,-928"/>
<polygon fill="#333333" stroke="#333333" points="808.5794,-931.5001 818.5793,-928 808.5793,-924.5001 808.5794,-931.5001"/>
</g>
<!-- nid&#45;13&#45;out -->
<g id="node16" class="node">
<title>nid&#45;13&#45;out</title>
<polygon fill="none" stroke="#00ff00" points="546.1242,-1048 378.6336,-1048 378.6336,-984 546.1242,-984 546.1242,-1048"/>
<text text-anchor="middle" x="462.3789" y="-1032.8" font-family="Times,serif" font-size="14.00" fill="#000000">0x13</text>
<text text-anchor="middle" x="462.3789" y="-1018.8" font-family="Times,serif" font-size="14.00" fill="#000000">[N/A] Line Out at Ext N/A</text>
<text text-anchor="middle" x="462.3789" y="-1004.8" font-family="Times,serif" font-size="14.00" fill="#000000">Stereo</text>
<text text-anchor="middle" x="462.3789" y="-990.8" font-family="Times,serif" font-size="14.00" fill="#000000">IN</text>
</g>
<!-- nid&#45;13&#45;out&#45;&gt;nid&#45;24 -->
<g id="edge40" class="edge">
<title>nid&#45;13&#45;out&#45;&gt;nid&#45;24</title>
<path fill="none" stroke="#c0c0c0" stroke-dasharray="5,2" d="M546.0042,-1015.5783C624.42,-1015.1829 739.2866,-1014.6036 805.8623,-1014.2679"/>
<polygon fill="#c0c0c0" stroke="#c0c0c0" points="806.1374,-1017.7666 816.1196,-1014.2162 806.1021,-1010.7667 806.1374,-1017.7666"/>
</g>
<!-- nid&#45;18&#45;out -->
<g id="node18" class="node">
<title>nid&#45;18&#45;out</title>
<polygon fill="none" stroke="#00ff00" points="544.8767,-676 379.8811,-676 379.8811,-612 544.8767,-612 544.8767,-676"/>
<text text-anchor="middle" x="462.3789" y="-660.8" font-family="Times,serif" font-size="14.00" fill="#000000">0x18</text>
<text text-anchor="middle" x="462.3789" y="-646.8" font-family="Times,serif" font-size="14.00" fill="#000000">[N/A] Speaker at Ext Rear</text>
<text text-anchor="middle" x="462.3789" y="-632.8" font-family="Times,serif" font-size="14.00" fill="#000000">Stereo</text>
<text text-anchor="middle" x="462.3789" y="-618.8" font-family="Times,serif" font-size="14.00" fill="#000000">IN Detect</text>
</g>
<!-- nid&#45;22&#45;ampin&#45;24 -->
<g id="node28" class="node">
<title>nid&#45;22&#45;ampin&#45;24</title>
<polygon fill="none" stroke="#c8c8c8" points="939.75,-426 818.6023,-448 818.6023,-404 939.75,-426"/>
<text text-anchor="middle" x="858.9849" y="-421.8" font-family="Times,serif" font-size="14.00" fill="#000000">0 (0x18)</text>
</g>
<!-- nid&#45;18&#45;out&#45;&gt;nid&#45;22&#45;ampin&#45;24 -->
<g id="edge22" class="edge">
<title>nid&#45;18&#45;out&#45;&gt;nid&#45;22&#45;ampin&#45;24</title>
<path fill="none" stroke="#333333" d="M513.4615,-611.8454C593.3741,-561.6741 741.5519,-469.2168 767.6118,-457 780.5492,-450.935 795.0093,-445.4701 808.541,-440.8787"/>
<polygon fill="#333333" stroke="#333333" points="809.7951,-444.1506 818.1951,-437.6938 807.602,-437.503 809.7951,-444.1506"/>
</g>
<!-- nid&#45;23&#45;ampin&#45;24 -->
<g id="node33" class="node">
<title>nid&#45;23&#45;ampin&#45;24</title>
<polygon fill="none" stroke="#c8c8c8" points="939.75,-742 818.6023,-764 818.6023,-720 939.75,-742"/>
<text text-anchor="middle" x="858.9849" y="-737.8" font-family="Times,serif" font-size="14.00" fill="#000000">0 (0x18)</text>
</g>
<!-- nid&#45;18&#45;out&#45;&gt;nid&#45;23&#45;ampin&#45;24 -->
<g id="edge33" class="edge">
<title>nid&#45;18&#45;out&#45;&gt;nid&#45;23&#45;ampin&#45;24</title>
<path fill="none" stroke="#333333" d="M545.0377,-664.4247C624.6095,-684.0866 742.367,-713.1841 808.7359,-729.5837"/>
<polygon fill="#333333" stroke="#333333" points="807.991,-733.0048 818.5386,-732.0059 809.6702,-726.2092 807.991,-733.0048"/>
</g>
<!-- nid&#45;19&#45;out -->
<g id="node19" class="node">
<title>nid&#45;19&#45;out</title>
<polygon fill="none" stroke="#00ff00" points="544.8767,-565 379.8811,-565 379.8811,-501 544.8767,-501 544.8767,-565"/>
<text text-anchor="middle" x="462.3789" y="-549.8" font-family="Times,serif" font-size="14.00" fill="#000000">0x19</text>
<text text-anchor="middle" x="462.3789" y="-535.8" font-family="Times,serif" font-size="14.00" fill="#000000">[N/A] Speaker at Ext Rear</text>
<text text-anchor="middle" x="462.3789" y="-521.8" font-family="Times,serif" font-size="14.00" fill="#000000">Stereo</text>
<text text-anchor="middle" x="462.3789" y="-507.8" font-family="Times,serif" font-size="14.00" fill="#000000">IN Detect</text>
</g>
<!-- nid&#45;22&#45;ampin&#45;25 -->
<g id="node29" class="node">
<title>nid&#45;22&#45;ampin&#45;25</title>
<polygon fill="none" stroke="#c8c8c8" points="939.75,-364 818.6023,-386 818.6023,-342 939.75,-364"/>
<text text-anchor="middle" x="858.9849" y="-359.8" font-family="Times,serif" font-size="14.00" fill="#000000">1 (0x19)</text>
</g>
<!-- nid&#45;19&#45;out&#45;&gt;nid&#45;22&#45;ampin&#45;25 -->
<g id="edge23" class="edge">
<title>nid&#45;19&#45;out&#45;&gt;nid&#45;22&#45;ampin&#45;25</title>
<path fill="none" stroke="#333333" d="M528.2678,-500.9589C589.553,-471.6979 683.762,-428.0875 767.6118,-395 780.7775,-389.8047 795.206,-384.662 808.6296,-380.103"/>
<polygon fill="#333333" stroke="#333333" points="809.8266,-383.3932 818.194,-376.8941 807.6,-376.7567 809.8266,-383.3932"/>
</g>
<!-- nid&#45;23&#45;ampin&#45;25 -->
<g id="node34" class="node">
<title>nid&#45;23&#45;ampin&#45;25</title>
<polygon fill="none" stroke="#c8c8c8" points="939.75,-680 818.6023,-702 818.6023,-658 939.75,-680"/>
<text text-anchor="middle" x="858.9849" y="-675.8" font-family="Times,serif" font-size="14.00" fill="#000000">1 (0x19)</text>
</g>
<!-- nid&#45;19&#45;out&#45;&gt;nid&#45;23&#45;ampin&#45;25 -->
<g id="edge34" class="edge">
<title>nid&#45;19&#45;out&#45;&gt;nid&#45;23&#45;ampin&#45;25</title>
<path fill="none" stroke="#333333" d="M544.3448,-565.0699C605.6283,-588.8232 691.5928,-621.6696 767.6118,-649 780.9309,-653.7885 795.4115,-658.793 808.836,-663.3493"/>
<polygon fill="#333333" stroke="#333333" points="807.7986,-666.6931 818.3929,-666.5783 810.0394,-660.0614 807.7986,-666.6931"/>
</g>
<!-- nid&#45;1a&#45;out -->
<g id="node20" class="node">
<title>nid&#45;1a&#45;out</title>
<polygon fill="none" stroke="#00ff00" points="544.8767,-431 379.8811,-431 379.8811,-367 544.8767,-367 544.8767,-431"/>
<text text-anchor="middle" x="462.3789" y="-415.8" font-family="Times,serif" font-size="14.00" fill="#000000">0x1a</text>
<text text-anchor="middle" x="462.3789" y="-401.8" font-family="Times,serif" font-size="14.00" fill="#000000">[N/A] Speaker at Ext Rear</text>
<text text-anchor="middle" x="462.3789" y="-387.8" font-family="Times,serif" font-size="14.00" fill="#000000">Stereo</text>
<text text-anchor="middle" x="462.3789" y="-373.8" font-family="Times,serif" font-size="14.00" fill="#000000">IN Detect</text>
</g>
<!-- nid&#45;22&#45;ampin&#45;26 -->
<g id="node30" class="node">
<title>nid&#45;22&#45;ampin&#45;26</title>
<polygon fill="none" stroke="#c8c8c8" points="938.7637,-302 819.0954,-324 819.0954,-280 938.7637,-302"/>
<text text-anchor="middle" x="858.9849" y="-297.8" font-family="Times,serif" font-size="14.00" fill="#000000">2 (0x1a)</text>
</g>
<!-- nid&#45;1a&#45;out&#45;&gt;nid&#45;22&#45;ampin&#45;26 -->
<g id="edge24" class="edge">
<title>nid&#45;1a&#45;out&#45;&gt;nid&#45;22&#45;ampin&#45;26</title>
<path fill="none" stroke="#333333" d="M545.0377,-378.7837C624.8254,-359.2696 743.0064,-330.3655 809.2751,-314.1578"/>
<polygon fill="#333333" stroke="#333333" points="810.176,-317.5407 819.0581,-311.7651 808.5129,-310.7411 810.176,-317.5407"/>
</g>
<!-- nid&#45;23&#45;ampin&#45;26 -->
<g id="node35" class="node">
<title>nid&#45;23&#45;ampin&#45;26</title>
<polygon fill="none" stroke="#c8c8c8" points="938.7637,-618 819.0954,-640 819.0954,-596 938.7637,-618"/>
<text text-anchor="middle" x="858.9849" y="-613.8" font-family="Times,serif" font-size="14.00" fill="#000000">2 (0x1a)</text>
</g>
<!-- nid&#45;1a&#45;out&#45;&gt;nid&#45;23&#45;ampin&#45;26 -->
<g id="edge35" class="edge">
<title>nid&#45;1a&#45;out&#45;&gt;nid&#45;23&#45;ampin&#45;26</title>
<path fill="none" stroke="#333333" d="M508.9232,-431.036C567.4707,-470.4226 671.9466,-537.7226 767.6118,-584 780.731,-590.3463 795.3615,-596.2698 809.0027,-601.3369"/>
<polygon fill="#333333" stroke="#333333" points="808.1308,-604.7439 818.7249,-604.869 810.5211,-598.1647 808.1308,-604.7439"/>
</g>
<!-- nid&#45;1b&#45;ampout -->
<g id="node22" class="node">
<title>nid&#45;1b&#45;ampout</title>
<polygon fill="none" stroke="#0000ff" points="1227.6244,-48 1187.1244,-66 1187.1244,-30 1227.6244,-48"/>
</g>
<!-- nid&#45;1b&#45;in&#45;&gt;nid&#45;1b&#45;ampout -->
<g id="edge10" class="edge">
<title>nid&#45;1b&#45;in&#45;&gt;nid&#45;1b&#45;ampout</title>
<path fill="none" stroke="#0000ff" d="M942.1224,-48C1022.0269,-48 1137.0496,-48 1181.8067,-48"/>
<polygon fill="#0000ff" stroke="#0000ff" points="1181.9095,-49.7501 1186.9095,-48 1181.9095,-46.2501 1181.9095,-49.7501"/>
</g>
<!-- nid&#45;1b&#45;out -->
<g id="node23" class="node">
<title>nid&#45;1b&#45;out</title>
<polygon fill="none" stroke="#00ff00" points="545.4483,-869 379.3096,-869 379.3096,-805 545.4483,-805 545.4483,-869"/>
<text text-anchor="middle" x="462.3789" y="-853.8" font-family="Times,serif" font-size="14.00" fill="#000000">0x1b</text>
<text text-anchor="middle" x="462.3789" y="-839.8" font-family="Times,serif" font-size="14.00" fill="#000000">[Fixed] Speaker at Int N/A</text>
<text text-anchor="middle" x="462.3789" y="-825.8" font-family="Times,serif" font-size="14.00" fill="#000000">Stereo</text>
<text text-anchor="middle" x="462.3789" y="-811.8" font-family="Times,serif" font-size="14.00" fill="#000000">IN OUT EAPD Detect</text>
</g>
<!-- nid&#45;22&#45;ampin&#45;27 -->
<g id="node31" class="node">
<title>nid&#45;22&#45;ampin&#45;27</title>
<polygon fill="none" stroke="#c8c8c8" points="939.75,-550 818.6023,-572 818.6023,-528 939.75,-550"/>
<text text-anchor="middle" x="858.9849" y="-545.8" font-family="Times,serif" font-size="14.00" fill="#000000">3 (0x1b)</text>
</g>
<!-- nid&#45;1b&#45;out&#45;&gt;nid&#45;22&#45;ampin&#45;27 -->
<g id="edge25" class="edge">
<title>nid&#45;1b&#45;out&#45;&gt;nid&#45;22&#45;ampin&#45;27</title>
<path fill="none" stroke="#333333" d="M538.3604,-804.8563C548.5182,-799.4327 558.5459,-793.4476 567.6118,-787 670.8252,-713.595 661.2925,-652.8295 767.6118,-584 780.1952,-575.8537 795.0077,-569.2747 809.001,-564.1535"/>
<polygon fill="#333333" stroke="#333333" points="810.2269,-567.4328 818.5203,-560.8396 807.9255,-560.822 810.2269,-567.4328"/>
</g>
<!-- nid&#45;23&#45;ampin&#45;27 -->
<g id="node36" class="node">
<title>nid&#45;23&#45;ampin&#45;27</title>
<polygon fill="none" stroke="#c8c8c8" points="939.75,-866 818.6023,-888 818.6023,-844 939.75,-866"/>
<text text-anchor="middle" x="858.9849" y="-861.8" font-family="Times,serif" font-size="14.00" fill="#000000">3 (0x1b)</text>
</g>
<!-- nid&#45;1b&#45;out&#45;&gt;nid&#45;23&#45;ampin&#45;27 -->
<g id="edge36" class="edge">
<title>nid&#45;1b&#45;out&#45;&gt;nid&#45;23&#45;ampin&#45;27</title>
<path fill="none" stroke="#333333" d="M545.5205,-843.0794C624.8647,-848.881 741.8507,-857.4351 808.1841,-862.2854"/>
<polygon fill="#333333" stroke="#333333" points="808.1532,-865.7924 818.3818,-863.0311 808.6637,-858.8111 808.1532,-865.7924"/>
</g>
<!-- nid&#45;1b&#45;ampin -->
<g id="node24" class="node">
<title>nid&#45;1b&#45;ampin</title>
<polygon fill="none" stroke="#0000ff" points="109.573,-837 69.073,-855 69.073,-819 109.573,-837"/>
</g>
<!-- nid&#45;1b&#45;ampin&#45;&gt;nid&#45;1b&#45;out -->
<g id="edge11" class="edge">
<title>nid&#45;1b&#45;ampin&#45;&gt;nid&#45;1b&#45;out</title>
<path fill="none" stroke="#0000ff" d="M109.5832,-837C163.9185,-837 288.544,-837 374.1225,-837"/>
<polygon fill="#0000ff" stroke="#0000ff" points="374.1894,-838.7501 379.1894,-837 374.1894,-835.2501 374.1894,-838.7501"/>
</g>
<!-- nid&#45;1d&#45;out -->
<g id="node25" class="node">
<title>nid&#45;1d&#45;out</title>
<polygon fill="none" stroke="#00ff00" points="559.8453,-775 364.9125,-775 364.9125,-711 559.8453,-711 559.8453,-775"/>
<text text-anchor="middle" x="462.3789" y="-759.8" font-family="Times,serif" font-size="14.00" fill="#000000">0x1d</text>
<text text-anchor="middle" x="462.3789" y="-745.8" font-family="Times,serif" font-size="14.00" fill="#000000">[N/A] Modem Hand at Ext N/A</text>
<text text-anchor="middle" x="462.3789" y="-731.8" font-family="Times,serif" font-size="14.00" fill="#000000">Mono</text>
<text text-anchor="middle" x="462.3789" y="-717.8" font-family="Times,serif" font-size="14.00" fill="#000000">IN</text>
</g>
<!-- nid&#45;22&#45;ampin&#45;29 -->
<g id="node32" class="node">
<title>nid&#45;22&#45;ampin&#45;29</title>
<polygon fill="none" stroke="#c8c8c8" points="939.75,-488 818.6023,-510 818.6023,-466 939.75,-488"/>
<text text-anchor="middle" x="858.9849" y="-483.8" font-family="Times,serif" font-size="14.00" fill="#000000">4 (0x1d)</text>
</g>
<!-- nid&#45;1d&#45;out&#45;&gt;nid&#45;22&#45;ampin&#45;29 -->
<g id="edge26" class="edge">
<title>nid&#45;1d&#45;out&#45;&gt;nid&#45;22&#45;ampin&#45;29</title>
<path fill="none" stroke="#333333" d="M529.0631,-710.9829C542.1486,-703.917 555.5485,-696.1049 567.6118,-688 664.2084,-623.1 666.2942,-576.2507 767.6118,-519 780.2864,-511.8381 794.8858,-505.9662 808.6424,-501.3338"/>
<polygon fill="#333333" stroke="#333333" points="810.0191,-504.5679 818.4709,-498.1791 807.8797,-497.9028 810.0191,-504.5679"/>
</g>
<!-- nid&#45;23&#45;ampin&#45;29 -->
<g id="node37" class="node">
<title>nid&#45;23&#45;ampin&#45;29</title>
<polygon fill="none" stroke="#c8c8c8" points="939.75,-804 818.6023,-826 818.6023,-782 939.75,-804"/>
<text text-anchor="middle" x="858.9849" y="-799.8" font-family="Times,serif" font-size="14.00" fill="#000000">4 (0x1d)</text>
</g>
<!-- nid&#45;1d&#45;out&#45;&gt;nid&#45;23&#45;ampin&#45;29 -->
<g id="edge37" class="edge">
<title>nid&#45;1d&#45;out&#45;&gt;nid&#45;23&#45;ampin&#45;29</title>
<path fill="none" stroke="#333333" d="M559.6535,-757.9613C638.2973,-770.0571 745.8664,-786.6018 808.3391,-796.2104"/>
<polygon fill="#333333" stroke="#333333" points="807.9248,-799.6878 818.3407,-797.7487 808.989,-792.7691 807.9248,-799.6878"/>
</g>
<!-- nid&#45;22&#45;ampin&#45;24&#45;&gt;nid&#45;22 -->
<g id="edge17" class="edge">
<title>nid&#45;22&#45;ampin&#45;24&#45;&gt;nid&#45;22</title>
<path fill="none" stroke="#c8c8c8" d="M939.9487,-426C1006.2787,-426 1097.8782,-426 1152.973,-426"/>
<polygon fill="#c8c8c8" stroke="#c8c8c8" points="1153.1888,-427.7501 1158.1887,-426 1153.1887,-424.2501 1153.1888,-427.7501"/>
</g>
<!-- nid&#45;22&#45;ampin&#45;25&#45;&gt;nid&#45;22 -->
<g id="edge18" class="edge">
<title>nid&#45;22&#45;ampin&#45;25&#45;&gt;nid&#45;22</title>
<path fill="none" stroke="#c8c8c8" d="M899.517,-371.3557C964.6327,-383.1727 1091.9351,-406.2753 1158.2206,-418.3047"/>
<polygon fill="#c8c8c8" stroke="#c8c8c8" points="1158.0427,-420.0509 1163.2748,-419.2219 1158.6677,-416.6071 1158.0427,-420.0509"/>
</g>
<!-- nid&#45;22&#45;ampin&#45;26&#45;&gt;nid&#45;22 -->
<g id="edge19" class="edge">
<title>nid&#45;22&#45;ampin&#45;26&#45;&gt;nid&#45;22</title>
<path fill="none" stroke="#c8c8c8" d="M887.8653,-311.5623C905.8802,-317.5854 929.5224,-325.596 950.3579,-333 1025.9427,-359.8593 1113.7031,-392.9038 1162.6369,-411.4969"/>
<polygon fill="#c8c8c8" stroke="#c8c8c8" points="1162.2436,-413.2195 1167.5391,-413.3606 1163.4874,-409.948 1162.2436,-413.2195"/>
</g>
<!-- nid&#45;22&#45;ampin&#45;27&#45;&gt;nid&#45;22 -->
<g id="edge20" class="edge">
<title>nid&#45;22&#45;ampin&#45;27&#45;&gt;nid&#45;22</title>
<path fill="none" stroke="#c8c8c8" d="M887.8653,-540.4377C905.8802,-534.4146 929.5224,-526.404 950.3579,-519 1025.9427,-492.1407 1113.7031,-459.0962 1162.6369,-440.5031"/>
<polygon fill="#c8c8c8" stroke="#c8c8c8" points="1163.4874,-442.052 1167.5391,-438.6394 1162.2436,-438.7805 1163.4874,-442.052"/>
</g>
<!-- nid&#45;22&#45;ampin&#45;29&#45;&gt;nid&#45;22 -->
<g id="edge21" class="edge">
<title>nid&#45;22&#45;ampin&#45;29&#45;&gt;nid&#45;22</title>
<path fill="none" stroke="#c8c8c8" d="M899.517,-480.6443C964.6327,-468.8273 1091.9351,-445.7247 1158.2206,-433.6953"/>
<polygon fill="#c8c8c8" stroke="#c8c8c8" points="1158.6677,-435.3929 1163.2748,-432.7781 1158.0427,-431.9491 1158.6677,-435.3929"/>
</g>
<!-- nid&#45;23&#45;ampin&#45;24&#45;&gt;nid&#45;23 -->
<g id="edge27" class="edge">
<title>nid&#45;23&#45;ampin&#45;24&#45;&gt;nid&#45;23</title>
<path fill="none" stroke="#c8c8c8" d="M913.1187,-746.912C980.2818,-753.0064 1093.5449,-763.2837 1155.9795,-768.949"/>
<polygon fill="#c8c8c8" stroke="#c8c8c8" points="1155.9847,-770.7065 1161.1224,-769.4156 1156.3011,-767.2209 1155.9847,-770.7065"/>
</g>
<!-- nid&#45;23&#45;ampin&#45;25&#45;&gt;nid&#45;23 -->
<g id="edge28" class="edge">
<title>nid&#45;23&#45;ampin&#45;25&#45;&gt;nid&#45;23</title>
<path fill="none" stroke="#c8c8c8" d="M891.4335,-688.8331C954.0934,-705.8901 1091.5982,-743.3213 1160.1326,-761.9775"/>
<polygon fill="#c8c8c8" stroke="#c8c8c8" points="1160.0618,-763.7718 1165.346,-763.3966 1160.9812,-760.3947 1160.0618,-763.7718"/>
</g>
<!-- nid&#45;23&#45;ampin&#45;26&#45;&gt;nid&#45;23 -->
<g id="edge29" class="edge">
<title>nid&#45;23&#45;ampin&#45;26&#45;&gt;nid&#45;23</title>
<path fill="none" stroke="#c8c8c8" d="M889.4009,-627.2002C907.3548,-632.9066 930.4005,-640.7134 950.3579,-649 1029.3158,-681.7842 1118.2243,-728.2278 1165.9244,-753.965"/>
<polygon fill="#c8c8c8" stroke="#c8c8c8" points="1165.1795,-755.5516 1170.4102,-756.3899 1166.8439,-752.4727 1165.1795,-755.5516"/>
</g>
<!-- nid&#45;23&#45;ampin&#45;27&#45;&gt;nid&#45;23 -->
<g id="edge30" class="edge">
<title>nid&#45;23&#45;ampin&#45;27&#45;&gt;nid&#45;23</title>
<path fill="none" stroke="#c8c8c8" d="M891.4335,-857.1669C954.0934,-840.1099 1091.5982,-802.6787 1160.1326,-784.0225"/>
<polygon fill="#c8c8c8" stroke="#c8c8c8" points="1160.9812,-785.6053 1165.346,-782.6034 1160.0618,-782.2282 1160.9812,-785.6053"/>
</g>
<!-- nid&#45;23&#45;ampin&#45;29&#45;&gt;nid&#45;23 -->
<g id="edge31" class="edge">
<title>nid&#45;23&#45;ampin&#45;29&#45;&gt;nid&#45;23</title>
<path fill="none" stroke="#c8c8c8" d="M913.1187,-799.088C980.2818,-792.9936 1093.5449,-782.7163 1155.9795,-777.051"/>
<polygon fill="#c8c8c8" stroke="#c8c8c8" points="1156.3011,-778.7791 1161.1224,-776.5844 1155.9847,-775.2935 1156.3011,-778.7791"/>
</g>
<!-- nid&#45;23&#45;ampin&#45;18&#45;&gt;nid&#45;23 -->
<g id="edge32" class="edge">
<title>nid&#45;23&#45;ampin&#45;18&#45;&gt;nid&#45;23</title>
<path fill="none" stroke="#c8c8c8" d="M889.4009,-918.7998C907.3548,-913.0934 930.4005,-905.2866 950.3579,-897 1029.3158,-864.2158 1118.2243,-817.7722 1165.9244,-792.035"/>
<polygon fill="#c8c8c8" stroke="#c8c8c8" points="1166.8439,-793.5273 1170.4102,-789.6101 1165.1795,-790.4484 1166.8439,-793.5273"/>
</g>
</g>
</svg>
